<svg viewBox="0 0 1379 400" xmlns="http://www.w3.org/2000/svg"><g><g><g><g><g><line x1="41.149001121520996" y1="332.9390886141138" x2="36.149001121520996" y2="332.9390886141138" style="visibility: inherit;" fill="rgb(0, 0, 0)" stroke="rgb(204, 204, 204)" stroke-width="1px"></line><line x1="41.149001121520996" y1="227.64363007070247" x2="36.149001121520996" y2="227.64363007070247" style="visibility: inherit;" fill="rgb(0, 0, 0)" stroke="rgb(204, 204, 204)" stroke-width="1px"></line><line x1="41.149001121520996" y1="145.97012724729257" x2="36.149001121520996" y2="145.97012724729257" style="visibility: inherit;" fill="rgb(0, 0, 0)" stroke="rgb(204, 204, 204)" stroke-width="1px"></line><line x1="41.149001121520996" y1="79.23801647877796" x2="36.149001121520996" y2="79.23801647877796" style="visibility: inherit;" fill="rgb(0, 0, 0)" stroke="rgb(204, 204, 204)" stroke-width="1px"></line><line x1="41.149001121520996" y1="22.816820750947784" x2="36.149001121520996" y2="22.816820750947784" style="visibility: inherit;" fill="rgb(0, 0, 0)" stroke="rgb(204, 204, 204)" stroke-width="1px"></line></g><g transform="translate(31.149001121520996, 0)"><text style="text-anchor: end; visibility: inherit; font-family: Roboto, sans-serif; font-size: 12px; font-weight: 200;" x="0" y="332.9390886141138" dx="0em" dy="0.3em" fill="rgb(50, 49, 63)" stroke="none" stroke-width="1px">0.3</text><text style="text-anchor: end; visibility: inherit; font-family: Roboto, sans-serif; font-size: 12px; font-weight: 200;" x="0" y="227.64363007070247" dx="0em" dy="0.3em" fill="rgb(50, 49, 63)" stroke="none" stroke-width="1px">0.4</text><text style="text-anchor: end; visibility: inherit; font-family: Roboto, sans-serif; font-size: 12px; font-weight: 200;" x="0" y="145.97012724729257" dx="0em" dy="0.3em" fill="rgb(50, 49, 63)" stroke="none" stroke-width="1px">0.5</text><text style="text-anchor: end; visibility: inherit; font-family: Roboto, sans-serif; font-size: 12px; font-weight: 200;" x="0" y="79.23801647877796" dx="0em" dy="0.3em" fill="rgb(50, 49, 63)" stroke="none" stroke-width="1px">0.6</text><text style="text-anchor: end; visibility: inherit; font-family: Roboto, sans-serif; font-size: 12px; font-weight: 200;" x="0" y="22.816820750947784" dx="0em" dy="0.3em" fill="rgb(50, 49, 63)" stroke="none" stroke-width="1px">0.7</text></g><line x1="41.149001121520996" y1="0" x2="41.149001121520996" y2="377.8999996185303" fill="rgb(0, 0, 0)" stroke="rgb(204, 204, 204)" stroke-width="1px"></line></g></g><g transform="translate(41, 0)" clip-path="url(#clip_0)"><clipPath id="clip_0"><rect width="1337" height="377"></rect></clipPath><g><g><g><line x1="0" y1="0" x2="0" y2="377.8999996185303" fill="rgb(0, 0, 0)" stroke="rgb(60, 60, 60)" stroke-width="1px" opacity="0.25"></line><line x1="148.65011098649765" y1="0" x2="148.65011098649765" y2="377.8999996185303" fill="rgb(0, 0, 0)" stroke="rgb(60, 60, 60)" stroke-width="1px" opacity="0.25"></line><line x1="297.3002219729953" y1="0" x2="297.3002219729953" y2="377.8999996185303" fill="rgb(0, 0, 0)" stroke="rgb(60, 60, 60)" stroke-width="1px" opacity="0.25"></line><line x1="445.950332959493" y1="0" x2="445.950332959493" y2="377.8999996185303" fill="rgb(0, 0, 0)" stroke="rgb(60, 60, 60)" stroke-width="1px" opacity="0.25"></line><line x1="594.6004439459906" y1="0" x2="594.6004439459906" y2="377.8999996185303" fill="rgb(0, 0, 0)" stroke="rgb(60, 60, 60)" stroke-width="1px" opacity="0.25"></line><line x1="743.2505549324884" y1="0" x2="743.2505549324884" y2="377.8999996185303" fill="rgb(0, 0, 0)" stroke="rgb(60, 60, 60)" stroke-width="1px" opacity="0.25"></line><line x1="891.900665918986" y1="0" x2="891.900665918986" y2="377.8999996185303" fill="rgb(0, 0, 0)" stroke="rgb(60, 60, 60)" stroke-width="1px" opacity="0.25"></line><line x1="1040.5507769054836" y1="0" x2="1040.5507769054836" y2="377.8999996185303" fill="rgb(0, 0, 0)" stroke="rgb(60, 60, 60)" stroke-width="1px" opacity="0.25"></line><line x1="1189.2008878919812" y1="0" x2="1189.2008878919812" y2="377.8999996185303" fill="rgb(0, 0, 0)" stroke="rgb(60, 60, 60)" stroke-width="1px" opacity="0.25"></line><line x1="1337.850998878479" y1="0" x2="1337.850998878479" y2="377.8999996185303" fill="rgb(0, 0, 0)" stroke="rgb(60, 60, 60)" stroke-width="1px" opacity="0.25"></line></g><g><line x1="0" y1="332.9390886141138" x2="1337.850998878479" y2="332.9390886141138" fill="rgb(0, 0, 0)" stroke="rgb(60, 60, 60)" stroke-width="1px" opacity="0.25"></line><line x1="0" y1="227.64363007070247" x2="1337.850998878479" y2="227.64363007070247" fill="rgb(0, 0, 0)" stroke="rgb(60, 60, 60)" stroke-width="1px" opacity="0.25"></line><line x1="0" y1="145.97012724729257" x2="1337.850998878479" y2="145.97012724729257" fill="rgb(0, 0, 0)" stroke="rgb(60, 60, 60)" stroke-width="1px" opacity="0.25"></line><line x1="0" y1="79.23801647877796" x2="1337.850998878479" y2="79.23801647877796" fill="rgb(0, 0, 0)" stroke="rgb(60, 60, 60)" stroke-width="1px" opacity="0.25"></line><line x1="0" y1="22.816820750947784" x2="1337.850998878479" y2="22.816820750947784" fill="rgb(0, 0, 0)" stroke="rgb(60, 60, 60)" stroke-width="1px" opacity="0.25"></line></g></g></g><g><g><line x1="148.65011098649765" y1="0" x2="148.65011098649765" y2="377.8999996185303" fill="rgb(0, 0, 0)" stroke="rgb(153, 153, 153)" stroke-width="1.5px"></line></g></g><g><g><g><g><g><path style="fill: none;" fill="none" stroke="none" stroke-width="1px"></path></g><g><path style="fill: none;" stroke="rgb(204, 51, 17)" stroke-width="2px" d="M148.65011098649765,287.844109212683L222.9751664797465,289.7162926037844L297.3002219729953,273.8876212070789L371.6252774662442,279.4122775069274L445.950332959493,287.3053242631824L520.2753884527418,287.378153930297L594.6004439459906,286.8177300775048L668.9254994392395,277.688484344977L743.2505549324884,271.22463041598263L817.5756104257372,262.5103850700938L891.900665918986,254.71564089146386L966.2257214122349,260.34403304792727L1040.5507769054836,251.09117950156224L1114.8758323987327,251.02575441966763L1189.2008878919812,252.06930667201544" fill="none"></path></g><g><path style="fill: none;" stroke="rgb(187, 187, 187)" stroke-width="2px" d="M148.65011098649765,156.05378419548532L222.9751664797465,170.38862848629708L297.3002219729953,172.1558797768128L371.6252774662442,167.56559377559438L445.950332959493,157.1343471190798L520.2753884527418,158.5206556263914L594.6004439459906,160.17868347538038L668.9254994392395,163.302819135599L743.2505549324884,160.43743887413285L817.5756104257372,156.64083329917025L891.900665918986,155.58428900893557L966.2257214122349,150.46339816208203L1040.5507769054836,150.6691091743835L1114.8758323987327,150.83153423919558L1189.2008878919812,155.06502753927774" fill="none"></path></g><g><path style="fill: none;" stroke="rgb(238, 51, 119)" stroke-width="2px" d="M148.65011098649765,306.2251942864285L222.9751664797465,302.88688749090966L297.3002219729953,296.6931726709526L371.6252774662442,299.6221444584358L445.950332959493,291.0851950769065L520.2753884527418,292.0473308309427L594.6004439459906,304.3926836020226L668.9254994392395,305.46103384185585L743.2505549324884,306.71487702023927L817.5756104257372,289.82210528878835L891.900665918986,302.7077407390897L966.2257214122349,297.2906578159144L1040.5507769054836,298.37142569660165L1114.8758323987327,288.6858610293358L1189.2008878919812,296.21552196463585" fill="none"></path></g></g></g></g><g opacity="0.2"><g><g><g><path style="fill: none;" fill="none" stroke="none" stroke-width="1px"></path></g><g><path style="fill: none;" stroke="rgb(204, 51, 17)" stroke-width="2px" d="M148.65011098649765,287.844109212683L222.9751664797465,290.84421659593596L297.3002219729953,259.31017042777296L371.6252774662442,286.01780299742006L445.950332959493,297.8735182026698L520.2753884527418,287.4789274744856L594.6004439459906,286.01780299742006L668.9254994392395,264.77315548154104L743.2505549324884,261.89529917288576L817.5756104257372,249.94185491536743L891.900665918986,243.3940167287963L966.2257214122349,268.92070932558255L1040.5507769054836,237.66498873114594L1114.8758323987327,250.92776684805827L1189.2008878919812,253.63900135652543" fill="none"></path></g><g><path style="fill: none;" stroke="rgb(187, 187, 187)" stroke-width="2px" d="M148.65011098649765,156.05378419548532L222.9751664797465,179.26699774099512L297.3002219729953,173.86050674605028L371.6252774662442,162.2400586405132L445.950332959493,143.94796155364787L520.2753884527418,160.44711675483785L594.6004439459906,162.56281627099065L668.9254994392395,167.9061613115993L743.2505549324884,156.25207914430305L817.5756104257372,151.07498857457463L891.900665918986,154.0146970170991L966.2257214122349,142.9410528891788L1040.5507769054836,150.97722019819597L1114.8758323987327,151.07498857457463L1189.2008878919812,161.50342643804913" fill="none"></path></g><g><path style="fill: none;" stroke="rgb(238, 51, 119)" stroke-width="2px" d="M148.65011098649765,306.2251942864285L222.9751664797465,300.89842127599616L297.3002219729953,290.84421659593596L371.6252774662442,303.09687560742657L445.950332959493,280.23088089363745L520.2753884527418,293.38249413162646L594.6004439459906,322.80319925451147L668.9254994392395,307.024307973771L743.2505549324884,308.5719262370947L817.5756104257372,266.0943550582656L891.900665918986,322.80319925451147L966.2257214122349,289.3410890338928L1040.5507769054836,299.99503503240624L1114.8758323987327,274.63977907494194L1189.2008878919812,307.7994377583423" fill="none"></path></g></g></g></g></g></g><g transform="translate(41, 377)" clip-path="url(#clip_1)"><clipPath id="clip_1"><rect width="1337" height="22"></rect></clipPath><g><g><line x1="0" y1="0" x2="0" y2="5" style="visibility: inherit;" fill="rgb(0, 0, 0)" stroke="rgb(204, 204, 204)" stroke-width="1px"></line><line x1="148.65011098649765" y1="0" x2="148.65011098649765" y2="5" style="visibility: inherit;" fill="rgb(0, 0, 0)" stroke="rgb(204, 204, 204)" stroke-width="1px"></line><line x1="297.3002219729953" y1="0" x2="297.3002219729953" y2="5" style="visibility: inherit;" fill="rgb(0, 0, 0)" stroke="rgb(204, 204, 204)" stroke-width="1px"></line><line x1="445.950332959493" y1="0" x2="445.950332959493" y2="5" style="visibility: inherit;" fill="rgb(0, 0, 0)" stroke="rgb(204, 204, 204)" stroke-width="1px"></line><line x1="594.6004439459906" y1="0" x2="594.6004439459906" y2="5" style="visibility: inherit;" fill="rgb(0, 0, 0)" stroke="rgb(204, 204, 204)" stroke-width="1px"></line><line x1="743.2505549324884" y1="0" x2="743.2505549324884" y2="5" style="visibility: inherit;" fill="rgb(0, 0, 0)" stroke="rgb(204, 204, 204)" stroke-width="1px"></line><line x1="891.900665918986" y1="0" x2="891.900665918986" y2="5" style="visibility: inherit;" fill="rgb(0, 0, 0)" stroke="rgb(204, 204, 204)" stroke-width="1px"></line><line x1="1040.5507769054836" y1="0" x2="1040.5507769054836" y2="5" style="visibility: inherit;" fill="rgb(0, 0, 0)" stroke="rgb(204, 204, 204)" stroke-width="1px"></line><line x1="1189.2008878919812" y1="0" x2="1189.2008878919812" y2="5" style="visibility: inherit;" fill="rgb(0, 0, 0)" stroke="rgb(204, 204, 204)" stroke-width="1px"></line><line x1="1337.850998878479" y1="0" x2="1337.850998878479" y2="5" style="visibility: inherit;" fill="rgb(0, 0, 0)" stroke="rgb(204, 204, 204)" stroke-width="1px"></line></g><g transform="translate(0, 8)"><text style="text-anchor: middle; visibility: hidden; font-family: Roboto, sans-serif; font-size: 12px; font-weight: 200;" x="0" y="0" dx="0em" dy="0.95em" fill="rgb(50, 49, 63)" stroke="none" stroke-width="1px">-2</text><text style="text-anchor: middle; visibility: inherit; font-family: Roboto, sans-serif; font-size: 12px; font-weight: 200;" x="148.65011098649765" y="0" dx="0em" dy="0.95em" fill="rgb(50, 49, 63)" stroke="none" stroke-width="1px">0</text><text style="text-anchor: middle; visibility: inherit; font-family: Roboto, sans-serif; font-size: 12px; font-weight: 200;" x="297.3002219729953" y="0" dx="0em" dy="0.95em" fill="rgb(50, 49, 63)" stroke="none" stroke-width="1px">2</text><text style="text-anchor: middle; visibility: inherit; font-family: Roboto, sans-serif; font-size: 12px; font-weight: 200;" x="445.950332959493" y="0" dx="0em" dy="0.95em" fill="rgb(50, 49, 63)" stroke="none" stroke-width="1px">4</text><text style="text-anchor: middle; visibility: inherit; font-family: Roboto, sans-serif; font-size: 12px; font-weight: 200;" x="594.6004439459906" y="0" dx="0em" dy="0.95em" fill="rgb(50, 49, 63)" stroke="none" stroke-width="1px">6</text><text style="text-anchor: middle; visibility: inherit; font-family: Roboto, sans-serif; font-size: 12px; font-weight: 200;" x="743.2505549324884" y="0" dx="0em" dy="0.95em" fill="rgb(50, 49, 63)" stroke="none" stroke-width="1px">8</text><text style="text-anchor: middle; visibility: inherit; font-family: Roboto, sans-serif; font-size: 12px; font-weight: 200;" x="891.900665918986" y="0" dx="0em" dy="0.95em" fill="rgb(50, 49, 63)" stroke="none" stroke-width="1px">10</text><text style="text-anchor: middle; visibility: inherit; font-family: Roboto, sans-serif; font-size: 12px; font-weight: 200;" x="1040.5507769054836" y="0" dx="0em" dy="0.95em" fill="rgb(50, 49, 63)" stroke="none" stroke-width="1px">12</text><text style="text-anchor: middle; visibility: inherit; font-family: Roboto, sans-serif; font-size: 12px; font-weight: 200;" x="1189.2008878919812" y="0" dx="0em" dy="0.95em" fill="rgb(50, 49, 63)" stroke="none" stroke-width="1px">14</text><text style="text-anchor: middle; visibility: hidden; font-family: Roboto, sans-serif; font-size: 12px; font-weight: 200;" x="1337.850998878479" y="0" dx="0em" dy="0.95em" fill="rgb(50, 49, 63)" stroke="none" stroke-width="1px">16</text></g><line x1="0" y1="0" x2="1337.850998878479" y2="0" fill="rgb(0, 0, 0)" stroke="rgb(204, 204, 204)" stroke-width="1px"></line></g></g></g></g></svg>